# xmcd CD database file generated by Grip 3.2.0
# 
# Track frame offsets:
#       150
#       15887
#       38435
#       54972
#       69857
#       92887
#       106605
#       136082
#       151502
#       170877
#       188875
#       204812
#       223867
#       243930
#       260807
#       283610
#       306960
# 
# Disc length: 4379 seconds
# 
# Revision: 5
# Processed by: cddbd v1.5.2PL0 Copyright (c) Steve Scherf et al.
# Submitted via: Grip 3.2.0
# 
DISCID=d8111911
DTITLE=Various Artist - Dixieland Forever Vol. 3
DYEAR=1999
DGENRE=Blues
TTITLE0=Great British Jazz Band - Original Dixieland One Step
TTITLE1=Roy Williams Big 10 - Limehouse Blues
TTITLE2=Mounty Sunshine - Duke's Place
TTITLE3=Chris Barber - Stevedoors Stomp
TTITLE4=Humphrey Lyttelton - Make Me a Pallet
TTITLE5=Beryl Bryden - St. Louis Blues
TTITLE6=Mr. Acker Bilk - Christopher Columbus
TTITLE7=Dutch Swing College Band - Basin Street Blues
TTITLE8=Digby Fairweaher - Sombody Sweetheart
TTITLE9=Max Collie's Rhythm Aces - When You're Smiling
TTITLE10=Art Hodes - I'm A Salty Man
TTITLE11=Soho Rhythm Kings - Bill Bailey Won't You
TTITLE12=The Tremble Kids - Rosetta
TTITLE13=Brian Green's Dixie Kings - Wabash Blues
TTITLE14=Pete Allen's Jazz Band - Ory's Creole Trombone
TTITLE15=Alex Welsh - When My Sugar
TTITLE16=Mike's Cotton Pickers - Jubilee
EXTD=
EXTT0=
EXTT1=
EXTT2=
EXTT3=
EXTT4=
EXTT5=
EXTT6=
EXTT7=
EXTT8=
EXTT9=
EXTT10=
EXTT11=
EXTT12=
EXTT13=
EXTT14=
EXTT15=
EXTT16=
PLAYORDER=
